# xmcd CD database file
# Generated: Sat Nov 8 12:25:28 2003 by KSCD
# 
# Track frame offsets:
#       150
#       15108
#       29491
#       47212
#       60606
#       80128
#       94767
#       108818
#       124374
#       143150
#
# Disc length: 2090 seconds
#
# Revision: 1
# Processed by: cddbd v1.4PL0 Copyright (c) Steve Scherf et al.
# Submitted via: Kscd 1.3.3
#
DISCID=8008280a
DTITLE=Jim Wilson - Simple Things
DYEAR=1900
DGENRE=
TTITLE0=Simple Things
TTITLE1=Something 'Bout You
TTITLE2=Jessie
TTITLE3=Stop Drop and Roll
TTITLE4=Lost Without Your Love
TTITLE5=Bet You're Gonna Find It
TTITLE6=Dim Lights
TTITLE7=Too Soon To Say
TTITLE8=still on my Mind
TTITLE9=Knowing and Learning
EXTD=
EXTT0=
EXTT1=
EXTT2=
EXTT3=
EXTT4=
EXTT5=
EXTT6=
EXTT7=
EXTT8=
EXTT9=
PLAYORDER=
